HIERARCHY
ROOT mixamorig:Hips
{
	OFFSET 0.000000 201.639420 0.000000
	CHANNELS 6 Xposition Yposition Zposition Xrotation Yrotation Zrotation
	JOINT mixamorig:Spine
	{
		OFFSET 0.006200 19.524994 -2.481800
		CHANNELS 3 Xrotation Yrotation Zrotation
		JOINT mixamorig:Spine1
		{
			OFFSET -0.000900 22.835007 -2.825400
			CHANNELS 3 Xrotation Yrotation Zrotation
			JOINT mixamorig:Spine2
			{
				OFFSET -0.020600 26.552490 -3.193300
				CHANNELS 3 Xrotation Yrotation Zrotation
				JOINT mixamorig:Neck
				{
					OFFSET -0.060000 30.701813 1.352200
					CHANNELS 3 Xrotation Yrotation Zrotation
					JOINT mixamorig:Head
					{
						OFFSET -0.087200 22.547607 3.670900
						CHANNELS 3 Xrotation Yrotation Zrotation
						JOINT mixamorig:HeadTop_End
						{
							OFFSET -0.830600 40.355194 7.893500
							CHANNELS 3 Xrotation Yrotation Zrotation
							End Site
							{
								OFFSET 0.000000 30.592346 0.000000
							}
						}
						JOINT mixamorig:RightEye
						{
							OFFSET -6.302100 18.118591 16.197100
							CHANNELS 3 Xrotation Yrotation Zrotation
							End Site
							{
								OFFSET 0.000000 30.592346 0.000000
							}
						}
						JOINT mixamorig:LeftEye
						{
							OFFSET 6.741500 18.382690 16.401899
							CHANNELS 3 Xrotation Yrotation Zrotation
							End Site
							{
								OFFSET 0.000000 30.592346 0.000000
							}
						}
					}
				}
				JOINT mixamorig:LeftShoulder
				{
					OFFSET 11.924900 18.230499 1.425400
					CHANNELS 3 Xrotation Yrotation Zrotation
					JOINT mixamorig:LeftArm
					{
						OFFSET 25.435989 -0.697632 -5.229300
						CHANNELS 3 Xrotation Yrotation Zrotation
						JOINT mixamorig:LeftForeArm
						{
							OFFSET 54.684776 0.000000 0.000000
							CHANNELS 3 Xrotation Yrotation Zrotation
							JOINT mixamorig:LeftHand
							{
								OFFSET 55.098175 0.000000 0.000000
								CHANNELS 3 Xrotation Yrotation Zrotation
								JOINT mixamorig:LeftHandMiddle1
								{
									OFFSET 23.369751 0.000000 0.000000
									CHANNELS 3 Xrotation Yrotation Zrotation
									JOINT mixamorig:LeftHandMiddle2
									{
										OFFSET 6.378677 0.000000 0.000000
										CHANNELS 3 Xrotation Yrotation Zrotation
										JOINT mixamorig:LeftHandMiddle3
										{
											OFFSET 6.148331 0.000000 0.000000
											CHANNELS 3 Xrotation Yrotation Zrotation
											JOINT mixamorig:LeftHandMiddle4
											{
												OFFSET 6.582504 0.000000 0.000000
												CHANNELS 3 Xrotation Yrotation Zrotation
												End Site
												{
													OFFSET -1.168900 6.395691 1.028606
												}
											}
										}
									}
								}
								JOINT mixamorig:LeftHandThumb1
								{
									OFFSET 7.235672 -3.848206 5.434273
									CHANNELS 3 Xrotation Yrotation Zrotation
									JOINT mixamorig:LeftHandThumb2
									{
										OFFSET 6.568451 -3.792297 3.792300
										CHANNELS 3 Xrotation Yrotation Zrotation
										JOINT mixamorig:LeftHandThumb3
										{
											OFFSET 6.063080 -3.500519 3.500518
											CHANNELS 3 Xrotation Yrotation Zrotation
											JOINT mixamorig:LeftHandThumb4
											{
												OFFSET 4.793182 -2.767334 2.767349
												CHANNELS 3 Xrotation Yrotation Zrotation
												End Site
												{
													OFFSET 0.101639 6.054260 1.275483
												}
											}
										}
									}
								}
								JOINT mixamorig:LeftHandIndex1
								{
									OFFSET 23.101074 -0.309540 4.992809
									CHANNELS 3 Xrotation Yrotation Zrotation
									JOINT mixamorig:LeftHandIndex2
									{
										OFFSET 6.226883 0.000000 0.000000
										CHANNELS 3 Xrotation Yrotation Zrotation
										JOINT mixamorig:LeftHandIndex3
										{
											OFFSET 6.094330 0.000000 0.000000
											CHANNELS 3 Xrotation Yrotation Zrotation
											JOINT mixamorig:LeftHandIndex4
											{
												OFFSET 5.482605 0.000000 0.000000
												CHANNELS 3 Xrotation Yrotation Zrotation
												End Site
												{
													OFFSET -1.427902 5.233032 0.797164
												}
											}
										}
									}
								}
								JOINT mixamorig:LeftHandRing1
								{
									OFFSET 22.299240 0.021149 -3.964172
									CHANNELS 3 Xrotation Yrotation Zrotation
									JOINT mixamorig:LeftHandRing2
									{
										OFFSET 6.321869 0.000000 0.000000
										CHANNELS 3 Xrotation Yrotation Zrotation
										JOINT mixamorig:LeftHandRing3
										{
											OFFSET 5.899796 0.000000 0.000000
											CHANNELS 3 Xrotation Yrotation Zrotation
											JOINT mixamorig:LeftHandRing4
											{
												OFFSET 6.517899 0.000000 0.000000
												CHANNELS 3 Xrotation Yrotation Zrotation
												End Site
												{
													OFFSET -1.637299 6.232208 0.980890
												}
											}
										}
									}
								}
								JOINT mixamorig:LeftHandPinky1
								{
									OFFSET 20.463791 -0.302338 -8.562233
									CHANNELS 3 Xrotation Yrotation Zrotation
									JOINT mixamorig:LeftHandPinky2
									{
										OFFSET 6.908646 0.000000 0.000000
										CHANNELS 3 Xrotation Yrotation Zrotation
										JOINT mixamorig:LeftHandPinky3
										{
											OFFSET 4.622849 0.000000 0.000000
											CHANNELS 3 Xrotation Yrotation Zrotation
											JOINT mixamorig:LeftHandPinky4
											{
												OFFSET 5.216080 0.000000 0.000000
												CHANNELS 3 Xrotation Yrotation Zrotation
												End Site
												{
													OFFSET -0.606308 5.116241 0.814926
												}
											}
										}
									}
								}
							}
						}
					}
				}
				JOINT mixamorig:RightShoulder
				{
					OFFSET -12.001300 18.284088 1.348900
					CHANNELS 3 Xrotation Yrotation Zrotation
					JOINT mixamorig:RightArm
					{
						OFFSET -25.308500 -0.751312 -5.164599
						CHANNELS 3 Xrotation Yrotation Zrotation
						JOINT mixamorig:RightForeArm
						{
							OFFSET -54.684429 0.000000 0.000000
							CHANNELS 3 Xrotation Yrotation Zrotation
							JOINT mixamorig:RightHand
							{
								OFFSET -55.150291 0.000000 0.000000
								CHANNELS 3 Xrotation Yrotation Zrotation
								JOINT mixamorig:RightHandMiddle1
								{
									OFFSET -23.317566 0.000000 0.000000
									CHANNELS 3 Xrotation Yrotation Zrotation
									JOINT mixamorig:RightHandMiddle2
									{
										OFFSET -6.378403 0.000000 0.000000
										CHANNELS 3 Xrotation Yrotation Zrotation
										JOINT mixamorig:RightHandMiddle3
										{
											OFFSET -6.148193 0.000000 0.000000
											CHANNELS 3 Xrotation Yrotation Zrotation
											JOINT mixamorig:RightHandMiddle4
											{
												OFFSET -6.583389 0.000000 0.000000
												CHANNELS 3 Xrotation Yrotation Zrotation
												End Site
												{
													OFFSET 1.171692 6.395905 1.029786
												}
											}
										}
									}
								}
								JOINT mixamorig:RightHandThumb1
								{
									OFFSET -7.190521 -3.860474 5.435846
									CHANNELS 3 Xrotation Yrotation Zrotation
									JOINT mixamorig:RightHandThumb2
									{
										OFFSET -6.567429 -3.791718 3.791708
										CHANNELS 3 Xrotation Yrotation Zrotation
										JOINT mixamorig:RightHandThumb3
										{
											OFFSET -6.062469 -3.500153 3.500166
											CHANNELS 3 Xrotation Yrotation Zrotation
											JOINT mixamorig:RightHandThumb4
											{
												OFFSET -4.792618 -2.767029 2.767022
												CHANNELS 3 Xrotation Yrotation Zrotation
												End Site
												{
													OFFSET -0.100327 6.053253 1.276754
												}
											}
										}
									}
								}
								JOINT mixamorig:RightHandIndex1
								{
									OFFSET -23.048981 -0.310791 4.992554
									CHANNELS 3 Xrotation Yrotation Zrotation
									JOINT mixamorig:RightHandIndex2
									{
										OFFSET -6.227539 0.000000 0.000000
										CHANNELS 3 Xrotation Yrotation Zrotation
										JOINT mixamorig:RightHandIndex3
										{
											OFFSET -6.095047 0.000000 0.000000
											CHANNELS 3 Xrotation Yrotation Zrotation
											JOINT mixamorig:RightHandIndex4
											{
												OFFSET -5.484772 0.000000 0.000000
												CHANNELS 3 Xrotation Yrotation Zrotation
												End Site
												{
													OFFSET 1.420593 5.237305 0.797056
												}
											}
										}
									}
								}
								JOINT mixamorig:RightHandRing1
								{
									OFFSET -22.246323 0.020569 -3.963762
									CHANNELS 3 Xrotation Yrotation Zrotation
									JOINT mixamorig:RightHandRing2
									{
										OFFSET -6.322128 0.000000 0.000000
										CHANNELS 3 Xrotation Yrotation Zrotation
										JOINT mixamorig:RightHandRing3
										{
											OFFSET -5.900024 0.000000 0.000000
											CHANNELS 3 Xrotation Yrotation Zrotation
											JOINT mixamorig:RightHandRing4
											{
												OFFSET -6.518356 0.000000 0.000000
												CHANNELS 3 Xrotation Yrotation Zrotation
												End Site
												{
													OFFSET 1.636398 6.232697 0.982186
												}
											}
										}
									}
								}
								JOINT mixamorig:RightHandPinky1
								{
									OFFSET -20.411011 -0.303314 -8.561701
									CHANNELS 3 Xrotation Yrotation Zrotation
									JOINT mixamorig:RightHandPinky2
									{
										OFFSET -6.907349 0.000000 0.000000
										CHANNELS 3 Xrotation Yrotation Zrotation
										JOINT mixamorig:RightHandPinky3
										{
											OFFSET -4.623840 0.000000 0.000000
											CHANNELS 3 Xrotation Yrotation Zrotation
											JOINT mixamorig:RightHandPinky4
											{
												OFFSET -5.218353 0.000000 0.000000
												CHANNELS 3 Xrotation Yrotation Zrotation
												End Site
												{
													OFFSET 0.602097 5.118835 0.816273
												}
											}
										}
									}
								}
							}
						}
					}
				}
			}
		}
	}
	JOINT mixamorig:LeftUpLeg
	{
		OFFSET 18.168400 -13.561905 -0.039000
		CHANNELS 3 Xrotation Yrotation Zrotation
		JOINT mixamorig:LeftLeg
		{
			OFFSET 0.577358 -80.825211 -3.695000
			CHANNELS 3 Xrotation Yrotation Zrotation
			JOINT mixamorig:LeftFoot
			{
				OFFSET -0.577356 -83.370262 -6.520700
				CHANNELS 3 Xrotation Yrotation Zrotation
				JOINT mixamorig:LeftToeBase
				{
					OFFSET 0.750401 -20.798306 25.135401
					CHANNELS 3 Xrotation Yrotation Zrotation
					JOINT mixamorig:LeftToe_End
					{
						OFFSET -0.000500 0.001200 19.917799
						CHANNELS 3 Xrotation Yrotation Zrotation
						End Site
						{
							OFFSET 0.000000 19.917805 0.000000
						}
					}
				}
			}
		}
	}
	JOINT mixamorig:RightUpLeg
	{
		OFFSET -18.162500 -13.585098 -0.041000
		CHANNELS 3 Xrotation Yrotation Zrotation
		JOINT mixamorig:RightLeg
		{
			OFFSET -0.595024 -80.945297 -3.631900
			CHANNELS 3 Xrotation Yrotation Zrotation
			JOINT mixamorig:RightFoot
			{
				OFFSET 0.595024 -83.218193 -6.561200
				CHANNELS 3 Xrotation Yrotation Zrotation
				JOINT mixamorig:RightToeBase
				{
					OFFSET -0.753601 -20.807106 25.115000
					CHANNELS 3 Xrotation Yrotation Zrotation
					JOINT mixamorig:RightToe_End
					{
						OFFSET 0.000299 0.001700 19.918200
						CHANNELS 3 Xrotation Yrotation Zrotation
						End Site
						{
							OFFSET 0.000000 19.918203 0.000000
						}
					}
				}
			}
		}
	}
}
MOTION
Frames: 4
Frame Time: 0.033333
17.636354 26.737869 -39.074326 -115.341650 73.325639 33.031300 15.408236 -10.495054 -6.420779 10.269403 -4.988670 -4.175177 10.075508 -5.450794 -4.055228 -3.272625 7.228380 -14.282618 -28.199343 11.664155 -14.767938 0.000000 0.000001 -0.000000 0.000000 0.000001 -0.000000 0.000000 0.000001 -0.000000 4.010598 -4.908954 30.425931 -98.272181 29.592952 -48.772274 0.000001 -29.022082 -0.000000 0.131376 16.629463 8.536184 -0.000000 -0.001930 0.015992 -0.000001 0.001930 -0.016007 0.000003 0.000000 -0.000007 -0.000001 0.000000 -0.000000 -1.540045 3.690181 6.142351 3.939051 7.948714 0.746813 -0.579471 1.574995 2.538715 0.000000 -0.000002 -0.000000 -0.000002 -0.000001 0.000012 0.000000 0.000007 -0.000018 -0.000002 0.000001 -0.000008 -0.000000 0.000000 -0.000000 -0.000003 -0.000002 0.000010 0.000001 0.000013 -0.000020 0.000001 -0.000003 -0.000007 -0.000000 0.000001 -0.000001 -0.018086 4.054250 0.511073 -0.018090 -4.054252 -0.511086 -0.000003 -0.000003 -0.000009 0.000000 0.000001 0.000003 5.201617 10.649072 -16.868033 -39.319541 45.122808 97.301256 -0.000321 102.936463 0.000334 5.604805 -5.065550 40.880800 -0.000001 -0.000003 -0.000003 -0.000008 -0.000000 0.000007 0.000007 -0.000004 -0.000004 0.000003 -0.000000 -0.000003 -1.849241 -3.581796 -6.586155 4.637193 -8.634123 -0.225414 -1.273756 0.137319 -2.094874 0.000004 -0.000001 -0.000000 0.000004 -0.000004 -0.000012 -0.000002 0.000001 -0.000008 -0.000000 -0.000003 0.000034 0.000002 -0.000001 -0.000001 -0.000002 -0.000001 -0.000006 -0.000005 0.000003 0.000033 0.000003 -0.000005 0.000002 -0.000001 -0.000001 0.000002 0.000003 -0.000003 -0.000015 -0.000007 0.000005 0.000022 0.000005 -0.000007 -0.000002 0.000001 -0.000001 -0.000001 -89.554387 0.984317 2.762384 91.170205 -1.214371 -0.466277 -3.805449 0.330678 -4.749498 0.000002 0.000001 -0.000003 0.000000 -0.000001 0.000000 -36.501344 3.127730 9.795125 86.804458 -9.050435 -3.731997 35.326872 -1.793102 7.195958 -15.637622 0.000006 -0.000011 -0.000000 0.000000 -0.000000 
17.764832 26.743484 -39.016800 -115.283348 73.164372 32.919425 15.303177 -10.450015 -6.297983 10.185996 -5.031057 -4.126641 9.990733 -5.493481 -4.003404 -3.063194 7.250327 -14.442928 -28.110687 11.751480 -14.847539 -0.000000 -0.000000 -0.000000 -0.000000 -0.000000 -0.000000 -0.000000 -0.000000 -0.000000 4.107629 -4.790687 29.996336 -98.160644 29.450031 -48.783465 0.000002 -28.883405 0.000001 0.430032 16.401205 8.843015 0.000000 -0.001930 0.015994 0.000004 0.001934 -0.016001 -0.000001 -0.000004 -0.000016 -0.000001 0.000001 -0.000000 -1.540045 3.690186 6.142355 3.939041 7.948706 0.746805 -0.579468 1.574995 2.538714 0.000000 -0.000000 0.000002 0.000002 -0.000003 0.000013 -0.000006 0.000003 -0.000020 -0.000003 0.000000 -0.000013 0.000001 0.000000 -0.000003 -0.000004 0.000000 0.000011 0.000004 0.000002 -0.000020 -0.000003 0.000001 -0.000010 -0.000001 -0.000002 -0.000000 -0.018087 4.054256 0.511075 -0.018093 -4.054249 -0.511091 0.000001 -0.000006 -0.000012 -0.000001 -0.000000 0.000001 5.170085 10.526592 -17.180496 -39.743481 45.429128 97.914894 -0.000332 102.664259 0.000353 6.834455 -6.416093 39.021410 0.000002 0.000000 0.000002 0.000001 0.000002 0.000030 -0.000003 -0.000000 -0.000008 0.000000 0.000000 0.000002 -1.849245 -3.581794 -6.586132 4.637200 -8.634119 -0.225406 -1.273755 0.137308 -2.094864 -0.000001 -0.000002 -0.000000 0.000004 -0.000001 0.000006 0.000003 -0.000004 0.000027 -0.000001 0.000001 -0.000011 -0.000000 0.000000 -0.000002 0.000004 -0.000001 0.000001 -0.000000 -0.000000 0.000029 -0.000001 -0.000003 -0.000007 -0.000001 -0.000001 0.000002 0.000004 0.000002 0.000001 0.000003 -0.000005 0.000026 -0.000009 0.000003 -0.000001 -0.000002 -0.000001 0.000001 -89.196308 0.890829 2.955788 91.304480 -2.072663 -0.621475 -5.714088 0.439352 -4.912079 0.000010 -0.000016 0.000004 -0.000001 0.000001 -0.000000 -36.392798 3.088473 9.815279 86.836710 -9.059447 -3.752334 35.242857 -1.748495 7.046676 -15.555527 0.000003 0.000001 0.000001 0.000000 -0.000001 
17.893854 26.773880 -38.958374 -115.265330 73.015685 32.839754 15.206854 -10.407250 -6.179154 10.107983 -5.069565 -4.078373 9.912000 -5.531327 -3.951945 -2.815602 7.259172 -14.676434 -28.098609 11.823673 -14.825160 -0.000000 0.000000 0.000002 -0.000000 0.000000 0.000002 -0.000000 0.000000 0.000002 4.162693 -4.692807 29.539694 -97.927625 29.198693 -48.839240 0.000002 -28.732403 0.000001 1.119210 16.262597 9.016639 0.000002 -0.001927 0.015989 0.000000 0.001928 -0.015992 0.000003 0.000001 -0.000015 -0.000000 0.000001 -0.000002 -1.540038 3.690189 6.142351 3.939037 7.948703 0.746812 -0.579466 1.575005 2.538714 0.000002 0.000001 0.000001 0.000002 0.000002 0.000011 0.000000 0.000001 -0.000017 -0.000003 0.000004 -0.000009 -0.000001 0.000001 -0.000003 -0.000001 0.000001 0.000011 -0.000001 0.000001 -0.000017 0.000003 -0.000002 -0.000012 -0.000000 0.000001 0.000002 -0.018086 4.054253 0.511072 -0.018089 -4.054245 -0.511085 -0.000003 0.000004 -0.000004 -0.000002 -0.000001 0.000001 5.128391 10.399511 -17.375854 -40.081210 45.717461 98.402126 -0.000054 102.502343 0.000060 7.606540 -7.557595 37.297607 -0.000006 0.000002 0.000013 0.000002 -0.000002 0.000020 0.000004 -0.000003 0.000011 0.000001 -0.000001 0.000003 -1.849242 -3.581794 -6.586149 4.637193 -8.634125 -0.225397 -1.273757 0.137305 -2.094882 0.000001 -0.000006 -0.000001 0.000002 0.000000 -0.000007 -0.000006 0.000001 0.000018 0.000010 -0.000006 -0.000015 -0.000002 0.000001 -0.000002 -0.000002 0.000000 -0.000002 0.000003 -0.000001 0.000019 0.000001 -0.000002 -0.000005 0.000002 0.000001 -0.000002 0.000000 0.000001 0.000001 -0.000001 -0.000003 0.000009 -0.000000 -0.000001 0.000008 0.000000 0.000000 -0.000002 -88.851704 0.783140 3.156547 91.427464 -2.856806 -0.774612 -7.432939 0.536223 -5.031943 0.000020 -0.000005 0.000015 -0.000001 -0.000000 0.000000 -36.272184 3.028007 9.838461 86.864474 -9.053740 -3.768050 35.157378 -1.728968 6.906039 -15.489996 -0.000015 0.000030 -0.000000 -0.000000 0.000002 
18.019615 26.827438 -38.902161 -115.282829 72.877879 32.784655 15.115982 -10.363659 -6.072112 10.032033 -5.101067 -4.033119 9.836354 -5.560813 -3.903450 -2.513623 7.244462 -14.961108 -28.169146 11.892247 -14.720267 0.000000 0.000000 0.000000 0.000000 0.000000 0.000000 0.000000 0.000000 0.000000 4.162592 -4.631757 29.090131 -97.560086 28.856648 -48.932196 0.000003 -28.549820 0.000001 2.157807 16.225553 9.041883 0.000002 -0.001932 0.015993 -0.000001 0.001934 -0.015998 0.000002 -0.000006 -0.000012 -0.000001 0.000003 -0.000001 -1.540046 3.690189 6.142355 3.939040 7.948708 0.746803 -0.579467 1.575004 2.538719 -0.000001 -0.000001 0.000000 -0.000003 -0.000002 0.000012 0.000001 0.000007 -0.000014 0.000003 -0.000003 -0.000012 -0.000001 0.000001 0.000001 -0.000003 -0.000000 0.000010 0.000004 0.000004 -0.000015 0.000005 -0.000002 -0.000010 -0.000002 -0.000000 0.000003 -0.018084 4.054253 0.511076 -0.018086 -4.054253 -0.511084 -0.000003 -0.000002 -0.000009 -0.000002 -0.000003 -0.000000 5.091073 10.293273 -17.483792 -40.269149 45.945593 98.700919 -0.000118 102.498545 0.000113 8.211384 -8.807395 35.860136 -0.000001 -0.000001 0.000004 -0.000007 0.000003 0.000025 0.000005 0.000001 0.000001 0.000001 -0.000000 -0.000004 -1.849252 -3.581790 -6.586129 4.637199 -8.634134 -0.225411 -1.273756 0.137308 -2.094888 -0.000002 0.000001 0.000001 -0.000000 0.000001 0.000004 -0.000002 -0.000001 0.000048 0.000003 -0.000001 0.000005 -0.000000 0.000002 -0.000000 -0.000011 0.000004 0.000009 0.000001 -0.000002 0.000028 0.000002 0.000001 0.000018 -0.000002 -0.000001 0.000003 -0.000007 0.000002 0.000018 0.000004 -0.000007 0.000035 0.000001 0.000001 0.000023 -0.000001 -0.000000 -0.000000 -88.528677 0.666237 3.365751 91.539452 -3.519786 -0.924999 -8.934642 0.611413 -5.067736 0.000010 -0.000003 0.000022 0.000001 -0.000001 -0.000000 -36.141994 2.955769 9.867982 86.885423 -9.046849 -3.774212 35.070033 -1.718539 6.783976 -15.416094 -0.000002 0.000004 -0.000001 0.000000 0.000001 
